<svg width="14" height="14" viewBox="0 0 14 14" fill="none" xmlns="http://www.w3.org/2000/svg">
<path d="M2.30729 10.004C2.14029 10.184 1.84429 10.506 1.50629 10.861C0.991289 11.401 0.576289 11.847 0.571289 11.86C1.08555 12.3746 1.60727 12.8817 2.13629 13.381L2.19129 13.428L3.00129 12.571L3.89329 11.628C4.80482 12.2401 5.87691 12.5691 6.97486 12.5738C8.07281 12.5784 9.14763 12.2584 10.0643 11.654L10.0903 11.684C10.6816 12.2627 11.2773 12.837 11.8773 13.407C11.8943 13.411 13.4333 11.783 13.4283 11.766C13.4283 11.757 12.3703 10.733 11.7233 10.116L11.6633 10.051C12.2575 9.1424 12.5733 8.0799 12.5717 6.9942C12.5701 5.9085 12.2512 4.84693 11.6543 3.94004L12.4563 3.08704C12.763 2.77238 13.0613 2.45104 13.3513 2.12304C13.3383 2.08804 11.7613 0.580045 11.7403 0.580045C11.7273 0.580045 11.3283 0.991045 10.8573 1.48804C10.4973 1.87404 10.1843 2.20004 10.0513 2.33704C9.15809 1.75248 8.11572 1.43689 7.04827 1.42785C5.98083 1.41881 4.93326 1.71669 4.03029 2.28604L3.97429 2.22604L3.20329 1.48004L2.98829 1.27804L2.41429 0.721045L2.26029 0.571045L1.49729 1.38604C1.23475 1.65649 0.977696 1.93222 0.726289 2.21304C0.721289 2.22104 1.09829 2.59805 1.56629 3.04805L2.40129 3.85404C1.7835 4.75667 1.44515 5.82122 1.42843 6.91489C1.41172 8.00857 1.71738 9.08296 2.30729 10.004ZM10.4283 7.00004C10.4283 7.45022 10.3396 7.89598 10.1673 8.31188C9.99507 8.72779 9.74257 9.10569 9.42425 9.42401C9.10593 9.74233 8.72803 9.99483 8.31213 10.1671C7.89622 10.3394 7.45046 10.428 7.00029 10.428C6.55012 10.428 6.10435 10.3394 5.68845 10.1671C5.27255 9.99483 4.89465 9.74233 4.57633 9.42401C4.25801 9.10569 4.0055 8.72779 3.83323 8.31188C3.66096 7.89598 3.57229 7.45022 3.57229 7.00004C3.57229 6.09088 3.93345 5.21896 4.57633 4.57608C5.2192 3.93321 6.09113 3.57205 7.00029 3.57205C7.90945 3.57205 8.78138 3.93321 9.42425 4.57608C10.0671 5.21896 10.4283 6.09088 10.4283 7.00004Z" fill="white"/>
</svg>
