<svg width="208" height="27" viewBox="0 0 208 27" fill="none" xmlns="http://www.w3.org/2000/svg">
<path d="M22.0657 17.9183H10.4115V26H0.560839V0.194126H22.0657C31.5695 0.194126 34.3097 3.97482 34.3097 8.72671V9.28168C34.3097 13.9642 31.5001 17.9183 22.0657 17.9183ZM10.4115 6.64559V11.4669H20.8864C23.141 11.4669 24.1469 10.5303 24.1469 9.10825V9.0042C24.1469 7.54741 23.1757 6.64559 20.8864 6.64559H10.4115ZM51.0545 11.3975C47.4819 11.3975 46.1292 12.5421 45.6783 14.207H56.4307C56.0839 12.4727 54.5924 11.3975 51.0545 11.3975ZM65.7958 19.271C65.7958 21.8724 64.2003 26.5203 52.0257 26.5203H50.1874C38.7412 26.5203 36.3133 21.2828 36.3133 16.9124V16.2187C36.3133 11.8831 38.5331 6.81902 50.0833 6.81902H51.991C64.1656 6.81902 65.8652 12.5074 65.8652 16.9818V18.0224H45.5742C45.8864 19.9301 47.4126 21.4562 51.228 21.4562H51.2626C55.737 21.4562 56.4307 19.6526 56.5001 19.2017H65.7958V19.271ZM78.7277 7.3393V10.7731C79.4908 9.6979 81.8494 6.92308 86.5319 6.92308H86.9481C93.1221 6.92308 94.787 11.1894 94.787 15.1782V17.0512H85.6301V16.3922C85.6301 14.311 84.7283 12.5768 82.2656 12.5768C80.0458 12.5768 78.7971 14.2417 78.7971 16.6003V26H69.3627V7.3393H78.7277ZM107.731 26H98.2965V7.3393H107.661V10.6691C108.494 9.80196 111.303 6.92308 116.922 6.92308H117.131C121.432 6.92308 123.755 8.72671 124.831 10.7731C126.288 9.38573 129.409 6.92308 134.612 6.92308H134.855C141.514 6.92308 143.491 11.0853 143.491 13.9989V26H134.057V17.0512C134.057 14.6232 133.051 12.7849 130.207 12.7849C127.259 12.7849 125.628 14.762 125.628 17.294V26H116.159V17.0512C116.159 14.6232 115.154 12.7849 112.309 12.7849C109.361 12.7849 107.731 14.762 107.731 17.294V26ZM164.441 17.9877V17.1899L158.197 18.2999C156.602 18.5773 155.908 18.9589 155.908 19.8954V19.9301C155.908 20.7972 156.567 21.8378 158.856 21.8378C162.325 21.8378 164.441 19.9648 164.441 17.9877ZM164.614 23.5027C163.712 24.4392 161.284 26.3469 155.873 26.3469H155.492C149.248 26.3469 146.855 23.3986 146.855 20.3463V19.9301C146.855 16.8084 148.867 15.0048 154.416 14.5192L163.4 13.7214C164.198 13.652 164.441 13.3399 164.441 12.8196C164.441 12.1606 164.059 11.3975 160.382 11.3975H160.244C156.29 11.3975 156.116 12.7155 156.047 13.3052H147.306V13.0971C147.306 10.5997 148.069 6.8537 159.272 6.8537H161.215C172.869 6.8537 173.667 10.3222 173.667 12.8543V19.7566C173.667 20.2422 173.84 20.5544 174.465 20.5544H175.47V26H167.632C166.001 26 164.891 25.1329 164.614 23.5027ZM187.189 26H176.887L185.489 16.3922L177.061 7.3393H187.778L192.045 12.2299L196.207 7.3393H206.578L198.357 16.2534L207.029 26H196.519L191.837 20.5197L187.189 26Z" fill="white"/>
</svg>
