<svg width="126" height="25" viewBox="0 0 126 25" fill="none" xmlns="http://www.w3.org/2000/svg">
<path d="M24.5582 17.0562C24.5582 19.0208 23.8582 20.737 22.4582 22.2048C21.0581 23.6726 19.3983 24.4065 17.4789 24.4065H2.01617V17.7844H16.6152C16.7845 17.7844 16.9426 17.7505 17.0894 17.6828C17.2475 17.6038 17.3829 17.5078 17.4958 17.3949C17.62 17.2707 17.716 17.1296 17.7838 16.9715C17.8628 16.8134 17.9023 16.6497 17.9023 16.4803C17.9023 16.311 17.8628 16.1473 17.7838 15.9892C17.716 15.8311 17.62 15.6956 17.4958 15.5827C17.3829 15.4585 17.2475 15.3625 17.0894 15.2948C16.9426 15.2158 16.7845 15.1762 16.6152 15.1762H7.65592C5.7252 15.1762 4.06545 14.4367 2.67668 12.9576C1.28792 11.4898 0.593531 9.7736 0.593531 7.809C0.593531 5.86699 1.28792 4.15643 2.67668 2.67734C4.06545 1.18695 5.7252 0.441762 7.65592 0.441762H23.1187V7.09768H8.51967C8.35031 7.09768 8.18659 7.1372 8.02852 7.21624C7.87045 7.28398 7.72931 7.37995 7.60511 7.50415C7.49221 7.61706 7.39623 7.75255 7.3172 7.91062C7.24945 8.0574 7.21558 8.21547 7.21558 8.38483C7.21558 8.73485 7.34543 9.0397 7.60511 9.29939C7.8648 9.55908 8.16965 9.68892 8.51967 9.68892H17.4789C19.3871 9.68892 21.0468 10.4341 22.4582 11.9245C23.8582 13.3923 24.5582 15.1029 24.5582 17.0562ZM47.4119 7.09768H40.1971V24.4065H33.5412V7.09768H26.3433V0.441762H47.4119V7.09768ZM73.1448 24.4065H56.2425C54.3117 24.4065 52.652 23.6726 51.2632 22.2048C49.8745 20.737 49.1801 19.0208 49.1801 17.0562C49.1801 15.1141 49.8745 13.4036 51.2632 11.9245C52.652 10.4341 54.3117 9.68892 56.2425 9.68892H66.4889V8.38483C66.4889 8.04611 66.359 7.7469 66.0993 7.48722C65.8396 7.22753 65.5404 7.09768 65.2017 7.09768H50.6027V0.441762H65.4896C67.5897 0.441762 69.3906 1.1926 70.8923 2.69427C72.3939 4.19595 73.1448 5.99683 73.1448 8.09692V24.4065ZM66.4889 17.7844V15.1762H57.1062C56.9368 15.1762 56.7731 15.2158 56.6151 15.2948C56.457 15.3625 56.3159 15.4585 56.1917 15.5827C56.0787 15.6956 55.9828 15.8311 55.9037 15.9892C55.836 16.1473 55.8021 16.311 55.8021 16.4803C55.8021 16.8303 55.932 17.1352 56.1917 17.3949C56.4513 17.6546 56.7562 17.7844 57.1062 17.7844H66.4889ZM98.8946 10.993C98.8946 13.0931 98.1437 14.894 96.642 16.3957C95.1404 17.8973 93.3395 18.6482 91.2394 18.6482H90.274L98.3695 24.4065H88.4957L81.5519 19.0885V24.4065H74.9299V0.441762H91.2394C93.3395 0.441762 95.1404 1.1926 96.642 2.69427C98.1437 4.19595 98.8946 5.99683 98.8946 8.09692V10.993ZM92.2386 10.4172V8.67275C92.2386 8.46952 92.1935 8.27193 92.1031 8.07998C92.0241 7.88804 91.9112 7.71868 91.7644 7.5719C91.6176 7.42512 91.4483 7.31221 91.2563 7.23317C91.0644 7.14285 90.8668 7.09768 90.6636 7.09768H81.5519V12.0092H90.6636C90.8668 12.0092 91.0644 11.964 91.2563 11.8737C91.4483 11.7834 91.6176 11.6648 91.7644 11.518C91.9112 11.3712 92.0241 11.2019 92.1031 11.0099C92.1935 10.818 92.2386 10.6204 92.2386 10.4172ZM125.339 24.4065H116.227L107.302 16.565V24.4065H100.68V0.441762H107.302V8.30015L116.227 0.441762H125.339L111.874 12.4326L125.339 24.4065Z" fill="white"/>
</svg>
