<svg width="22" height="20" viewBox="0 0 22 20" fill="none" xmlns="http://www.w3.org/2000/svg">
<path d="M8.7275 3.94L5.0175 0.23C4.9475 0.16 4.8575 0.0999999 4.7575 0.0599999C4.7475 0.0599999 4.7375 0.06 4.7275 0.05C4.6475 0.02 4.5675 0 4.4775 0C4.2775 0 4.0875 0.08 3.9475 0.22L0.2175 3.94C-0.0725 4.23 -0.0725 4.71 0.2175 5C0.5075 5.29 0.9875 5.29 1.2775 5L3.7275 2.55V18.75C3.7275 19.16 4.0675 19.5 4.4775 19.5C4.8875 19.5 5.2275 19.16 5.2275 18.75V2.56L7.6675 5C7.8175 5.15 8.0075 5.22 8.1975 5.22C8.3875 5.22 8.5775 5.15 8.7275 5C9.0175 4.71 9.0175 4.24 8.7275 3.94Z" fill="white"/>
<path d="M21.6723 14.5C21.3823 14.21 20.9023 14.21 20.6123 14.5L18.1623 16.95V0.75C18.1623 0.34 17.8223 0 17.4123 0C17.0023 0 16.6623 0.34 16.6623 0.75V16.94L14.2223 14.5C13.9323 14.21 13.4523 14.21 13.1623 14.5C12.8723 14.79 12.8723 15.27 13.1623 15.56L16.8723 19.27C16.9423 19.34 17.0323 19.4 17.1323 19.44C17.1423 19.44 17.1523 19.44 17.1623 19.45C17.2423 19.48 17.3323 19.5 17.4223 19.5C17.6223 19.5 17.8123 19.42 17.9523 19.28L21.6723 15.56C21.9623 15.26 21.9623 14.79 21.6723 14.5Z" fill="white"/>
</svg>
